<?xml version="1.0" encoding="UTF-8"?>
<svg width="113" height="113" version="1.1" viewBox="0 0 113 113" xmlns="http://www.w3.org/2000/svg" xmlns:cc="http://creativecommons.org/ns#" xmlns:dc="http://purl.org/dc/elements/1.1/" xmlns:rdf="http://www.w3.org/1999/02/22-rdf-syntax-ns#">
 <title>Quiz</title>
 <metadata>
  <rdf:RDF>
   <cc:Work rdf:about="">
    <dc:format>image/svg+xml</dc:format>
    <dc:type rdf:resource="http://purl.org/dc/dcmitype/StillImage"/>
    <dc:title>Quiz</dc:title>
   </cc:Work>
  </rdf:RDF>
 </metadata>
 <path d="m50.85 90.4h11.3v-11.3h-11.3v11.3m5.65-90.4a56.5 56.5 0 0 0-56.5 56.5 56.5 56.5 0 0 0 56.5 56.5 56.5 56.5 0 0 0 56.5-56.5 56.5 56.5 0 0 0-56.5-56.5m0 101.7c-24.916 0-45.2-20.284-45.2-45.2s20.284-45.2 45.2-45.2 45.2 20.284 45.2 45.2-20.284 45.2-45.2 45.2m0-79.1a22.6 22.6 0 0 0-22.6 22.6h11.3a11.3 11.3 0 0 1 11.3-11.3 11.3 11.3 0 0 1 11.3 11.3c0 11.3-16.95 9.8875-16.95 28.25h11.3c0-12.712 16.95-14.125 16.95-28.25a22.6 22.6 0 0 0-22.6-22.6z" fill="#fff" stroke-width="5.65"/>
</svg>
